<svg width="64" height="64" viewBox="0 0 64 64" fill="none" xmlns="http://www.w3.org/2000/svg">
<rect width="64" height="64" rx="32" fill="white"/>
<path d="M41.2812 34.25C40.2244 34.25 39.1912 34.5634 38.3124 35.1506C37.4336 35.7378 36.7487 36.5723 36.3443 37.5488C35.9398 38.5252 35.834 39.5997 36.0402 40.6363C36.2464 41.6729 36.7553 42.625 37.5026 43.3724C38.25 44.1197 39.2021 44.6286 40.2387 44.8348C41.2753 45.041 42.3498 44.9352 43.3262 44.5307C44.3027 44.1263 45.1372 43.4414 45.7244 42.5626C46.3116 41.6838 46.625 40.6506 46.625 39.5938C46.6205 38.1779 46.0561 36.8212 45.0549 35.8201C44.0537 34.8189 42.6971 34.2545 41.2812 34.25ZM22.7187 34.25C21.6619 34.25 20.6287 34.5634 19.7499 35.1506C18.8711 35.7378 18.1862 36.5723 17.7818 37.5488C17.3773 38.5252 17.2715 39.5997 17.4777 40.6363C17.6839 41.6729 18.1928 42.625 18.9401 43.3724C19.6875 44.1197 20.6396 44.6286 21.6762 44.8348C22.7128 45.041 23.7873 44.9352 24.7637 44.5307C25.7402 44.1263 26.5747 43.4414 27.1619 42.5626C27.7491 41.6838 28.0625 40.6506 28.0625 39.5938C28.058 38.1779 27.4936 36.8212 26.4924 35.8201C25.4912 34.8189 24.1346 34.2545 22.7187 34.25Z" stroke="#081F5C" stroke-width="3" stroke-miterlimit="10"/>
<path d="M32 39.3125V33.2656L27.5 30.3125L33.125 24.125L35.9375 29.1875H39.875" stroke="#081F5C" stroke-width="3" stroke-linecap="round" stroke-linejoin="round"/>
<path d="M36.5 23.5626C36.7964 23.5636 37.09 23.5059 37.3639 23.3927C37.6378 23.2796 37.8865 23.1132 38.0958 22.9034C38.305 22.6935 38.4706 22.4442 38.5828 22.1699C38.6951 21.8957 38.752 21.6019 38.75 21.3055C38.7533 21.0107 38.6977 20.7181 38.5866 20.445C38.4755 20.1718 38.311 19.9236 38.1029 19.7147C37.8947 19.5059 37.6469 19.3406 37.3741 19.2286C37.1013 19.1167 36.8089 19.0602 36.5141 19.0626C36.2186 19.0616 35.9258 19.1189 35.6525 19.2312C35.3792 19.3434 35.1306 19.5083 34.921 19.7166C34.4977 20.1372 34.2589 20.7088 34.257 21.3055C34.2552 21.9023 34.4904 22.4753 34.9111 22.8986C35.3317 23.3219 35.9033 23.5607 36.5 23.5626Z" fill="#081F5C"/>
</svg>
