<svg width="64" height="64" viewBox="0 0 64 64" fill="none" xmlns="http://www.w3.org/2000/svg">
<rect width="64" height="64" rx="32" fill="white"/>
<path d="M37.646 20C38.4816 20 39.3006 20.2327 40.0114 20.672C40.7223 21.1112 41.2967 21.7397 41.6705 22.487L43.745 26.6345C44.111 26.4845 44.4755 26.333 44.8295 26.1575C45.1856 25.9797 45.5977 25.9506 45.9752 26.0766C46.3527 26.2026 46.6647 26.4734 46.8425 26.8295C47.0203 27.1856 47.0494 27.5977 46.9234 27.9752C46.7974 28.3527 46.5266 28.6647 46.1705 28.8425C45.4295 29.2115 45.0905 29.3255 45.0905 29.3255L46.5245 32.195C46.838 32.8205 47 33.509 47 34.208V38C47 38.6331 46.8664 39.2591 46.6079 39.8371C46.3494 40.415 45.9719 40.9319 45.5 41.354V43.25C45.5 43.8467 45.2629 44.419 44.841 44.841C44.419 45.2629 43.8467 45.5 43.25 45.5C42.6533 45.5 42.081 45.2629 41.659 44.841C41.2371 44.419 41 43.8467 41 43.25V42.5H23V43.25C23 43.8467 22.7629 44.419 22.341 44.841C21.919 45.2629 21.3467 45.5 20.75 45.5C20.1533 45.5 19.581 45.2629 19.159 44.841C18.7371 44.419 18.5 43.8467 18.5 43.25V41.354C17.579 40.529 17 39.332 17 38V34.208C17.0003 33.5097 17.1631 32.821 17.4755 32.1965L18.9095 29.3255C18.5461 29.1751 18.1869 29.0146 17.8325 28.844C17.6557 28.7563 17.4979 28.6345 17.3683 28.4857C17.2386 28.3369 17.1396 28.164 17.0769 27.9769C17.0142 27.7897 16.989 27.592 17.0029 27.3951C17.0167 27.1983 17.0692 27.006 17.1575 26.8295C17.339 26.475 17.6527 26.2062 18.0308 26.0813C18.409 25.9564 18.8211 25.9854 19.178 26.162C19.532 26.332 19.891 26.4895 20.255 26.6345L22.3295 22.487C22.7033 21.7397 23.2778 21.1112 23.9886 20.672C24.6994 20.2327 25.5184 20 26.354 20H37.646ZM42.251 30.356C39.701 31.1615 36.0725 32 32 32C27.9275 32 24.299 31.16 21.749 30.356L20.159 33.536C20.0545 33.7446 20 33.9747 20 34.208V38C20 38.3978 20.158 38.7794 20.4393 39.0607C20.7206 39.342 21.1022 39.5 21.5 39.5H42.5C42.8978 39.5 43.2794 39.342 43.5607 39.0607C43.842 38.7794 44 38.3978 44 38V34.208C43.9998 33.9752 43.9453 33.7456 43.841 33.5375L42.251 30.356ZM25.25 33.5C25.8467 33.5 26.419 33.7371 26.841 34.159C27.2629 34.581 27.5 35.1533 27.5 35.75C27.5 36.3467 27.2629 36.919 26.841 37.341C26.419 37.7629 25.8467 38 25.25 38C24.6533 38 24.081 37.7629 23.659 37.341C23.2371 36.919 23 36.3467 23 35.75C23 35.1533 23.2371 34.581 23.659 34.159C24.081 33.7371 24.6533 33.5 25.25 33.5ZM38.75 33.5C39.3467 33.5 39.919 33.7371 40.341 34.159C40.7629 34.581 41 35.1533 41 35.75C41 36.3467 40.7629 36.919 40.341 37.341C39.919 37.7629 39.3467 38 38.75 38C38.1533 38 37.581 37.7629 37.159 37.341C36.7371 36.919 36.5 36.3467 36.5 35.75C36.5 35.1533 36.7371 34.581 37.159 34.159C37.581 33.7371 38.1533 33.5 38.75 33.5ZM37.646 23H26.354C26.0755 23.0001 25.8026 23.0778 25.5657 23.2243C25.3289 23.3708 25.1375 23.5804 25.013 23.8295L23.108 27.635C25.43 28.3325 28.559 29 32 29C35.441 29 38.57 28.3325 40.8905 27.635L38.987 23.8295C38.8625 23.5804 38.6711 23.3708 38.4343 23.2243C38.1974 23.0778 37.9245 23.0001 37.646 23Z" fill="#081F5C"/>
</svg>
