<svg width="64" height="64" viewBox="0 0 64 64" fill="none" xmlns="http://www.w3.org/2000/svg">
<rect width="64" height="64" rx="32" fill="white"/>
<path d="M26.75 39.5C27.1478 39.5 27.5294 39.342 27.8107 39.0607C28.092 38.7794 28.25 38.3978 28.25 38C28.2572 37.9001 28.2572 37.7999 28.25 37.7C28.2345 37.6058 28.2041 37.5147 28.16 37.43C28.1265 37.3347 28.0812 37.244 28.025 37.16L27.845 36.935C27.7023 36.7984 27.5341 36.6914 27.35 36.62C27.0696 36.488 26.7552 36.4461 26.45 36.5L26.18 36.59L25.91 36.725C25.8322 36.7814 25.7571 36.8414 25.685 36.905L25.505 37.13C25.4488 37.214 25.4035 37.3047 25.37 37.4C25.3259 37.4847 25.2955 37.5758 25.28 37.67C25.2728 37.7699 25.2728 37.8701 25.28 37.97C25.28 38.3678 25.438 38.7494 25.7193 39.0307C26.0006 39.312 26.3822 39.47 26.78 39.47L26.75 39.5ZM38.75 39.5C39.1478 39.5 39.5294 39.342 39.8107 39.0607C40.092 38.7794 40.25 38.3978 40.25 38C40.2572 37.9001 40.2572 37.7999 40.25 37.7C40.2345 37.6058 40.2041 37.5147 40.16 37.43C40.1265 37.3347 40.0812 37.244 40.025 37.16L39.845 36.935C39.6983 36.8036 39.5311 36.6972 39.35 36.62C38.9848 36.47 38.5752 36.47 38.21 36.62C38.0289 36.6972 37.8617 36.8036 37.715 36.935L37.535 37.16C37.4788 37.244 37.4335 37.3347 37.4 37.43C37.3559 37.5147 37.3255 37.6058 37.31 37.7C37.3028 37.7999 37.3028 37.9001 37.31 38C37.3117 38.3935 37.4679 38.7706 37.745 39.05C38.0108 39.322 38.3701 39.4828 38.75 39.5ZM34.25 21.5H31.25C30.8522 21.5 30.4706 21.658 30.1893 21.9393C29.908 22.2206 29.75 22.6022 29.75 23C29.75 23.3978 29.908 23.7794 30.1893 24.0607C30.4706 24.342 30.8522 24.5 31.25 24.5H34.25C34.6478 24.5 35.0294 24.342 35.3107 24.0607C35.592 23.7794 35.75 23.3978 35.75 23C35.75 22.6022 35.592 22.2206 35.3107 21.9393C35.0294 21.658 34.6478 21.5 34.25 21.5ZM41.75 17H23.75C22.5565 17 21.4119 17.4741 20.568 18.318C19.7241 19.1619 19.25 20.3065 19.25 21.5V39.5C19.2526 40.4284 19.5423 41.3333 20.0794 42.0906C20.6165 42.8479 21.3747 43.4205 22.25 43.73V45.5C22.25 45.8978 22.408 46.2794 22.6893 46.5607C22.9706 46.842 23.3522 47 23.75 47C24.1478 47 24.5294 46.842 24.8107 46.5607C25.092 46.2794 25.25 45.8978 25.25 45.5V44H40.25V45.5C40.25 45.8978 40.408 46.2794 40.6893 46.5607C40.9706 46.842 41.3522 47 41.75 47C42.1478 47 42.5294 46.842 42.8107 46.5607C43.092 46.2794 43.25 45.8978 43.25 45.5V43.73C44.1253 43.4205 44.8835 42.8479 45.4206 42.0906C45.9577 41.3333 46.2474 40.4284 46.25 39.5V21.5C46.25 20.3065 45.7759 19.1619 44.932 18.318C44.0881 17.4741 42.9435 17 41.75 17ZM43.25 39.5C43.25 39.8978 43.092 40.2794 42.8107 40.5607C42.5294 40.842 42.1478 41 41.75 41H23.75C23.3522 41 22.9706 40.842 22.6893 40.5607C22.408 40.2794 22.25 39.8978 22.25 39.5V35H43.25V39.5ZM43.25 32H22.25V21.5C22.25 21.1022 22.408 20.7206 22.6893 20.4393C22.9706 20.158 23.3522 20 23.75 20H41.75C42.1478 20 42.5294 20.158 42.8107 20.4393C43.092 20.7206 43.25 21.1022 43.25 21.5V32Z" fill="#081F5C"/>
</svg>
