<svg width="64" height="64" viewBox="0 0 64 64" fill="none" xmlns="http://www.w3.org/2000/svg">
<rect width="64" height="64" rx="32" fill="white"/>
<g clip-path="url(#clip0_144_454)">
<path d="M32 19C32 18.2044 32.3161 17.4413 32.8787 16.8787C33.4413 16.3161 34.2043 16 35 16C35.7956 16 36.5587 16.3161 37.1213 16.8787C37.6839 17.4413 38 18.2044 38 19C38 19.7956 37.6839 20.5587 37.1213 21.1213C36.5587 21.6839 35.7956 22 35 22C34.2043 22 33.4413 21.6839 32.8787 21.1213C32.3161 20.5587 32 19.7956 32 19ZM29.9062 28.4563C29.8437 28.4812 29.7875 28.5063 29.725 28.5312L29.225 28.75C28.2 29.2063 27.4125 30.075 27.0562 31.1375L26.8937 31.625C26.5437 32.675 25.4125 33.2375 24.3625 32.8875C23.3125 32.5375 22.75 31.4062 23.1 30.3562L23.2625 29.8687C23.975 27.7375 25.55 26 27.6 25.0875L28.1 24.8687C29.4 24.2937 30.8062 23.9938 32.2312 23.9938C35.0187 23.9938 37.5312 25.6688 38.6 28.2375L39.5625 30.5437L40.9 31.2125C41.8875 31.7062 42.2875 32.9062 41.7937 33.8937C41.3 34.8812 40.1 35.2812 39.1125 34.7875L37.4375 33.9562C36.7937 33.6312 36.2875 33.0938 36.0125 32.425L35.4125 30.9875L34.2062 35.0812L37.3 38.4562C37.6375 38.825 37.875 39.2688 38 39.7563L39.4375 45.5125C39.7062 46.5813 39.0562 47.6688 37.9812 47.9375C36.9062 48.2062 35.825 47.5563 35.5562 46.4813L34.1812 40.975L29.7625 36.1562C28.8375 35.15 28.4937 33.7437 28.8437 32.425L29.9 28.4563H29.9062ZM26.2937 40.875L27.8562 36.975C27.9875 37.1625 28.1375 37.3375 28.2937 37.5125L30.8375 40.2875L29.9312 42.55C29.7812 42.925 29.5562 43.2687 29.2687 43.5562L25.4125 47.4125C24.6312 48.1937 23.3625 48.1937 22.5812 47.4125C21.8 46.6313 21.8 45.3625 22.5812 44.5812L26.2937 40.875Z" fill="#081F5C"/>
</g>
<defs>
<clipPath id="clip0_144_454">
<rect width="20" height="32" fill="white" transform="translate(22 16)"/>
</clipPath>
</defs>
</svg>
